<?xml version="1.0" standalone="no"?>
<!DOCTYPE svg PUBLIC "-//W3C//DTD SVG 20010904//EN"
 "http://www.w3.org/TR/2001/REC-SVG-20010904/DTD/svg10.dtd">
<svg version="1.0" xmlns="http://www.w3.org/2000/svg"
 width="690.000000pt" height="690.000000pt" viewBox="0 0 690.000000 690.000000"
 preserveAspectRatio="xMidYMid meet">
<metadata>
Created by potrace 1.11, written by Peter Selinger 2001-2013
</metadata>
<g transform="translate(0.000000,690.000000) scale(0.100000,-0.100000)"
fill="#000000" stroke="none">
<path d="M1712 3493 l-1713 -1716 52 -53 52 -53 210 210 c115 115 215 209 221
209 17 1 2778 1 2806 1 l25 -1 0 -207 0 -208 73 -3 72 -3 1 73 c0 40 1 133 1
205 -1 73 3 135 9 138 5 4 645 6 1422 7 l1412 0 211 -211 210 -211 52 53 52
53 -1715 1714 c-943 943 -1720 1716 -1727 1717 -7 0 -784 -771 -1726 -1714z
m2266 976 c243 -243 442 -446 442 -451 0 -5 -40 -77 -88 -161 -49 -84 -142
-244 -207 -357 -65 -113 -166 -288 -225 -390 -59 -102 -117 -201 -127 -220
-63 -112 -247 -426 -254 -434 -4 -5 -7 550 -7 1233 1 952 4 1239 13 1231 6 -5
210 -208 453 -451z m-613 -779 c0 -677 -2 -1230 -5 -1230 -3 0 -68 107 -143
238 -76 130 -144 248 -152 262 -9 14 -150 258 -314 543 l-298 517 446 449
c245 247 451 449 456 450 7 1 10 -415 10 -1229z m-903 20 c53 -91 104 -181
115 -200 11 -19 120 -208 243 -420 122 -212 236 -410 253 -440 16 -30 33 -59
37 -65 17 -23 121 -207 118 -210 -2 -1 -127 70 -278 157 -151 88 -294 170
-317 183 -23 13 -111 64 -195 113 -84 49 -173 100 -198 114 -198 111 -536 310
-538 317 -1 4 142 153 319 330 286 286 323 320 334 304 6 -10 55 -92 107 -183z
m2410 -135 l315 -315 -31 -19 c-26 -15 -133 -77 -463 -267 -18 -11 -135 -78
-260 -151 -577 -333 -783 -451 -783 -446 0 3 85 152 189 332 104 179 198 343
209 363 53 94 147 256 167 288 12 19 89 151 170 293 111 194 150 255 160 247
6 -5 154 -152 327 -325z m-3241 -451 c22 -14 55 -33 73 -43 18 -11 221 -128
452 -261 230 -134 439 -254 464 -268 104 -58 526 -304 532 -310 4 -4 -549 -6
-1228 -6 -679 1 -1237 4 -1240 7 -4 4 894 907 903 907 2 0 22 -11 44 -26z
m4121 -429 c448 -448 455 -455 419 -456 -181 -3 -2433 0 -2437 3 -2 3 152 95
343 206 192 110 416 239 498 287 83 48 168 97 190 109 22 13 85 49 140 81 55
32 159 92 230 133 72 41 134 78 140 83 5 5 12 9 15 9 4 0 212 -205 462 -455z"/>
</g>
</svg>
